# xmcd CD database file
#
# Track frame offsets:
#	187
#	20887
#	30709
#	42224
#	56299
#	62512
#	73704
#	84984
#	93524
#	103324
#	116372
#
# Disc length: 1782 seconds
#
# Revision: 1
# Processed by: cddbd v1.5.2PL0 Copyright (c) Steve Scherf et al.
# Submitted via: CDex 1.51
#
DISCID=8d06f40b
DTITLE=Chet Atkins and Merle Travis - The Atkins And Travis Traveling Show
DYEAR=1974
DGENRE=Rock
TTITLE0=Down South Blues
TTITLE1=Mutual Admiration
TTITLE2=Muskrat Ramble
TTITLE3=If I Had You
TTITLE4=Cannonball Rag
TTITLE5=Boogie For Cecil
TTITLE6=Is Anything Better Than This
TTITLE7=Dance Of The Golden Rod
TTITLE8=Who's Sorry Now
TTITLE9=Nine Pound Hammer
TTITLE10=I'll See You In My Dreams
EXTD=YEAR: 1974
EXTT0=
EXTT1=
EXTT2=
EXTT3=
EXTT4=
EXTT5=
EXTT6=
EXTT7=
EXTT8=
EXTT9=
EXTT10=
PLAYORDER=
